<?xml version="1.0" standalone="no"?>
<!DOCTYPE svg PUBLIC "-//W3C//DTD SVG 20010904//EN"
 "http://www.w3.org/TR/2001/REC-SVG-20010904/DTD/svg10.dtd">
<svg version="1.0" xmlns="http://www.w3.org/2000/svg"
 width="2000.000000pt" height="2000.000000pt" viewBox="0 0 2000.000000 2000.000000"
 preserveAspectRatio="xMidYMid meet">

<g transform="translate(0.000000,2000.000000) scale(0.100000,-0.100000)"
fill="#000000" stroke="none">
<path d="M0 10000 l0 -10000 2475 0 2475 0 0 6275 0 6275 2500 0 2500 0 0
1223 0 1222 -1250 1250 -1250 1250 1252 1252 1253 1253 -4978 0 -4977 0 0
-10000z"/>
<path d="M11298 18747 l1252 -1252 -1250 -1250 -1250 -1250 0 -1222 0 -1223
2450 0 2450 0 0 3725 0 3725 -2452 0 -2453 0 1253 -1253z"/>
<path d="M15050 16225 l0 -3775 -2500 0 -2500 0 0 -3722 0 -3723 2502 -2503
2503 -2502 2472 0 2473 0 0 10000 0 10000 -2475 0 -2475 0 0 -3775z"/>
<path d="M8777 18712 l-1217 -1217 1220 -1220 1220 -1220 1220 1220 1220 1220
-1217 1217 c-670 670 -1220 1218 -1223 1218 -3 0 -553 -548 -1223 -1218z"/>
<path d="M5050 7148 c0 -2917 -3 -5718 -7 -6225 l-6 -923 2456 0 2457 0 0
2498 0 2497 -1250 1250 -1250 1250 1250 1250 1250 1250 0 1228 0 1227 -2450 0
-2450 0 0 -5302z"/>
<path d="M8752 8687 l-1192 -1192 1195 -1195 1195 -1195 0 2388 c0 1313 -1
2387 -3 2387 -1 0 -539 -537 -1195 -1193z"/>
<path d="M10050 2445 l0 -2445 2447 0 2448 0 -2445 2445 c-1345 1345 -2446
2445 -2447 2445 -2 0 -3 -1100 -3 -2445z"/>
</g>
</svg>
